<?xml version="1.0" encoding="utf-8"?>
<!-- Generator: Adobe Illustrator 26.1.0, SVG Export Plug-In . SVG Version: 6.00 Build 0)  -->
<svg version="1.1" id="Слой_1" xmlns="http://www.w3.org/2000/svg" xmlns:xlink="http://www.w3.org/1999/xlink" x="0px" y="0px"
	 viewBox="0 0 78 78" style="enable-background:new 0 0 78 78;" xml:space="preserve">
<style type="text/css">
	.st0{fill:none;}
	.st1{fill:#151515;}
</style>
<rect class="st0" width="78" height="78"/>
<g>
	<g>
		<path class="st1" d="M68.2,37C68.2,37,68.1,37,68.2,37l-14-2c-0.3,0-0.5-0.3-0.5-0.6v-5.2c0-0.2,0.1-0.3,0.2-0.4
			c0.1-0.1,0.3-0.2,0.4-0.2h0l12.5,0c0.3,0,0.5,0.2,0.6,0.5l1.4,7.1c0,0.2,0,0.4-0.2,0.5C68.5,36.9,68.4,37,68.2,37z M54.8,33.9
			l12.6,1.8l-1.2-5.8l-11.5,0V33.9z"/>
	</g>
	<g>
		<g>
			<path class="st1" d="M19.2,56.5c-3,0-5.4-2.4-5.4-5.4s2.4-5.4,5.4-5.4s5.4,2.4,5.4,5.4S22.2,56.5,19.2,56.5z M19.2,46.8
				c-2.3,0-4.2,1.9-4.2,4.2s1.9,4.2,4.2,4.2s4.2-1.9,4.2-4.2S21.5,46.8,19.2,46.8z"/>
		</g>
		<g>
			<path class="st1" d="M19.2,53.6c-1.4,0-2.5-1.1-2.5-2.5s1.1-2.5,2.5-2.5s2.5,1.1,2.5,2.5S20.6,53.6,19.2,53.6z M19.2,49.7
				c-0.7,0-1.3,0.6-1.3,1.3s0.6,1.3,1.3,1.3s1.3-0.6,1.3-1.3S19.9,49.7,19.2,49.7z"/>
		</g>
	</g>
	<g>
		<g>
			<path class="st1" d="M29.9,56.5c-3,0-5.4-2.4-5.4-5.4s2.4-5.4,5.4-5.4s5.4,2.4,5.4,5.4S32.9,56.5,29.9,56.5z M29.9,46.8
				c-2.3,0-4.2,1.9-4.2,4.2s1.9,4.2,4.2,4.2s4.2-1.9,4.2-4.2S32.2,46.8,29.9,46.8z"/>
		</g>
		<g>
			<path class="st1" d="M29.9,53.6c-1.4,0-2.5-1.1-2.5-2.5s1.1-2.5,2.5-2.5s2.5,1.1,2.5,2.5S31.3,53.6,29.9,53.6z M29.9,49.7
				c-0.7,0-1.3,0.6-1.3,1.3s0.6,1.3,1.3,1.3s1.3-0.6,1.3-1.3S30.6,49.7,29.9,49.7z"/>
		</g>
	</g>
	<g>
		<g>
			<path class="st1" d="M56.2,56.5c-3,0-5.4-2.4-5.4-5.4s2.4-5.4,5.4-5.4s5.4,2.4,5.4,5.4S59.2,56.5,56.2,56.5z M56.2,46.8
				c-2.3,0-4.2,1.9-4.2,4.2s1.9,4.2,4.2,4.2s4.2-1.9,4.2-4.2S58.5,46.8,56.2,46.8z"/>
		</g>
		<g>
			<path class="st1" d="M56.2,53.6c-1.4,0-2.5-1.1-2.5-2.5s1.1-2.5,2.5-2.5c1.4,0,2.5,1.1,2.5,2.5S57.6,53.6,56.2,53.6z M56.2,49.7
				c-0.7,0-1.3,0.6-1.3,1.3s0.6,1.3,1.3,1.3s1.3-0.6,1.3-1.3S56.9,49.7,56.2,49.7z"/>
		</g>
	</g>
	<g>
		<polygon class="st1" points="68.8,42.6 67.6,42.6 67.6,36.5 65.8,27.3 51.9,27.3 51.9,42.6 50.8,42.6 50.8,26.1 66.7,26.1 
			68.8,36.4 		"/>
	</g>
	<g>
		<path class="st1" d="M49.1,43.2h-5V21.5h5V43.2z M45.2,42h2.6V22.7h-2.6V42z"/>
	</g>
	<g>
		<path class="st1" d="M51.9,43.1h-4v-6.9h4V43.1z M49.1,41.9h1.6v-4.5h-1.6V41.9z"/>
	</g>
	<g>
		<path class="st1" d="M53.1,25.5h-5v-4h5V25.5z M49.3,24.3h2.6v-1.6h-2.6V24.3z"/>
	</g>
	<g>
		<rect x="58.1" y="46.1" class="st1" width="5.3" height="1.2"/>
	</g>
	<g>
		<polygon class="st1" points="14.8,50.7 13.8,50.7 13.8,42 51.3,42 51.3,43.2 15,43.2 15,50.1 14.8,50.1 		"/>
	</g>
	<g>
		
			<rect x="55.5" y="43.5" transform="matrix(1 -7.630833e-03 7.630833e-03 1 -0.3417 0.4294)" class="st1" width="1.2" height="2.9"/>
	</g>
	<g>
		<rect x="40.9" y="49.5" class="st1" width="10.5" height="1.2"/>
	</g>
	<g>
		<rect x="34.8" y="49.5" class="st1" width="4.1" height="1.2"/>
	</g>
	<g>
		<g>
			<rect x="10" y="34.5" transform="matrix(0.3589 -0.9334 0.9334 0.3589 -23.116 36.578)" class="st1" width="10.1" height="1.2"/>
		</g>
		<g>
			
				<rect x="18.1" y="34.5" transform="matrix(0.3589 -0.9334 0.9334 0.3589 -17.9192 44.1438)" class="st1" width="10.1" height="1.2"/>
		</g>
		<g>
			
				<rect x="26.2" y="34.5" transform="matrix(0.3582 -0.9337 0.9337 0.3582 -12.7129 51.7384)" class="st1" width="10.1" height="1.2"/>
		</g>
		<g>
			
				<rect x="34.3" y="34.5" transform="matrix(0.3582 -0.9337 0.9337 0.3582 -7.5103 59.3064)" class="st1" width="10.1" height="1.2"/>
		</g>
	</g>
	<g>
		<polygon class="st1" points="49.1,50.1 47.9,50.1 47.9,45.7 37.5,45.7 37.5,50.1 36.3,50.1 36.3,44.5 49.1,44.5 		"/>
	</g>
	<g>
		<path class="st1" d="M68.8,48.8h-4.9l-0.1-0.4c-0.1-0.1-0.1-0.3-0.2-0.4c-0.6-1.4-1.7-2.6-3-3.5h-9.8v-4h17.4v0.6h0.6V48.8z
			 M64.7,47.6h2.9v-5.8H51.9v1.6h8.9l0.1,0.1c1.6,1,2.9,2.4,3.7,4.1C64.7,47.5,64.7,47.5,64.7,47.6z"/>
	</g>
	<g>
		<rect x="57.5" y="29.3" class="st1" width="1.2" height="5.7"/>
	</g>
	<g>
		<path class="st1" d="M45.2,43.2h-36V27.1h36V43.2z M10.4,42H44V28.3H10.4V42z"/>
	</g>
</g>
</svg>
