<?xml version="1.0" encoding="utf-8"?>
<!-- Generator: Adobe Illustrator 26.1.0, SVG Export Plug-In . SVG Version: 6.00 Build 0)  -->
<svg version="1.1" id="Слой_1" xmlns="http://www.w3.org/2000/svg" xmlns:xlink="http://www.w3.org/1999/xlink" x="0px" y="0px"
	 viewBox="0 0 78 78" style="enable-background:new 0 0 78 78;" xml:space="preserve">
<style type="text/css">
	.st0{fill:none;}
	.st1{fill:#151515;}
</style>
<rect class="st0" width="78" height="78"/>
<g>
	<g>
		<path class="st1" d="M67.1,36.5c-0.1,0-0.1,0-0.2,0l-7-2.1c-1.6-0.2-2.8-1.7-2.8-3.4v-3.4c0-0.2,0.1-0.3,0.2-0.4
			c0.1-0.1,0.3-0.2,0.4-0.2c0,0,0,0,0,0l8,0c0.3,0,0.5,0.2,0.6,0.5l1.5,8.3c0,0.2,0,0.4-0.2,0.6C67.4,36.5,67.3,36.5,67.1,36.5z
			 M58.3,28.2V31c0,1.1,0.8,2,1.9,2.2l6.2,1.8l-1.2-6.9L58.3,28.2z"/>
	</g>
	<g>
		<g>
			<path class="st1" d="M14.6,60.1c-3,0-5.4-2.4-5.4-5.4s2.4-5.4,5.4-5.4s5.4,2.4,5.4,5.4S17.6,60.1,14.6,60.1z M14.6,50.5
				c-2.3,0-4.2,1.9-4.2,4.2s1.9,4.2,4.2,4.2s4.2-1.9,4.2-4.2S17,50.5,14.6,50.5z"/>
		</g>
		<g>
			<path class="st1" d="M14.6,57.2c-1.4,0-2.5-1.1-2.5-2.5c0-1.4,1.1-2.5,2.5-2.5s2.5,1.1,2.5,2.5C17.2,56.1,16,57.2,14.6,57.2z
				 M14.6,53.4c-0.7,0-1.3,0.6-1.3,1.3s0.6,1.3,1.3,1.3s1.3-0.6,1.3-1.3S15.4,53.4,14.6,53.4z"/>
		</g>
	</g>
	<g>
		<g>
			<path class="st1" d="M25.3,60.1c-3,0-5.4-2.4-5.4-5.4s2.4-5.4,5.4-5.4s5.4,2.4,5.4,5.4S28.3,60.1,25.3,60.1z M25.3,50.5
				c-2.3,0-4.2,1.9-4.2,4.2s1.9,4.2,4.2,4.2s4.2-1.9,4.2-4.2S27.7,50.5,25.3,50.5z"/>
		</g>
		<g>
			<path class="st1" d="M25.3,57.2c-1.4,0-2.5-1.1-2.5-2.5c0-1.4,1.1-2.5,2.5-2.5s2.5,1.1,2.5,2.5C27.8,56.1,26.7,57.2,25.3,57.2z
				 M25.3,53.4c-0.7,0-1.3,0.6-1.3,1.3s0.6,1.3,1.3,1.3s1.3-0.6,1.3-1.3S26.1,53.4,25.3,53.4z"/>
		</g>
	</g>
	<g>
		<g>
			<path class="st1" d="M57,60.1c-3,0-5.4-2.4-5.4-5.4s2.4-5.4,5.4-5.4s5.4,2.4,5.4,5.4S59.9,60.1,57,60.1z M57,50.4
				c-2.3,0-4.2,1.9-4.2,4.2s1.9,4.2,4.2,4.2s4.2-1.9,4.2-4.2S59.3,50.4,57,50.4z"/>
		</g>
		<g>
			<path class="st1" d="M57,57.1c-1.4,0-2.5-1.1-2.5-2.5c0-1.4,1.1-2.5,2.5-2.5c1.4,0,2.5,1.1,2.5,2.5C59.5,56,58.3,57.1,57,57.1z
				 M57,53.3c-0.7,0-1.3,0.6-1.3,1.3s0.6,1.3,1.3,1.3s1.3-0.6,1.3-1.3S57.7,53.3,57,53.3z"/>
		</g>
	</g>
	<g>
		<path class="st1" d="M40.7,47.3H29.9v-5h10.8V47.3z M31.1,46.1h8.4v-2.6h-8.4V46.1z"/>
	</g>
	<g>
		<polygon class="st1" points="10.4,54.8 9.2,54.8 9.2,46.1 16.4,46.1 16.4,47.3 10.4,47.3 		"/>
	</g>
	<g>
		<rect x="18.3" y="46.1" class="st1" width="28.4" height="1.2"/>
	</g>
	<g>
		<rect x="61.8" y="53.2" class="st1" width="3.1" height="1.2"/>
	</g>
	<g>
		<rect x="30.2" y="53.2" class="st1" width="22" height="1.2"/>
	</g>
	<g>
		<polygon class="st1" points="47.6,53.7 46.4,53.7 46.4,47.3 32.5,47.3 32.5,53.7 31.3,53.7 31.3,46.1 47.6,46.1 		"/>
	</g>
	<g>
		<rect x="60.9" y="37.2" transform="matrix(0.1691 -0.9856 0.9856 0.1691 7.809 97.1108)" class="st1" width="1.2" height="13.5"/>
	</g>
	<g>
		<path class="st1" d="M68.1,54.3h-4.6c-0.3,0-0.5-0.2-0.6-0.5l-0.1-0.6c-0.2-1.1-0.5-2.8-1-4.1c-0.5-1-1.9-1.8-3.9-2.2
			c-2.4-0.4-4.6-0.1-5.1,0.4c-0.2,0.2-0.4,0.2-0.6,0.1l-9.8-3.9c-0.1,0-0.2-0.1-0.3-0.2c-1.2-1.7,0-8.6,4-23
			c0.2-0.9,0.5-1.7,0.5-1.9c0-0.1,0-0.2,0.1-0.3c0.2-0.2,0.5-0.3,0.8-0.2l2.4,1.3l15.9,1.6c0.3,0,0.5,0.2,0.5,0.5l1.3,6.1
			c0,0.2,0,0.4-0.1,0.5c-0.1,0.1-0.3,0.2-0.5,0.2c0,0,0,0,0,0l-1.9,0c-0.3,0-0.6-0.3-0.6-0.6c0-0.3,0.3-0.6,0.6-0.6c0,0,0,0,0,0
			l1.2,0l-1-5l-15.6-1.6c-0.1,0-0.2,0-0.2-0.1l-1.8-1c-0.1,0.3-0.2,0.7-0.3,1.3c-4.4,15.9-4.8,20.7-4.3,21.9l9.3,3.7
			c1.2-0.8,3.8-0.8,5.8-0.5c2.4,0.4,4.1,1.5,4.8,2.9c0.5,1.4,0.9,3.2,1.1,4.3l0,0.1h3.5l0-16.5l-1.3-0.2c-0.3-0.1-0.5-0.4-0.5-0.7
			c0.1-0.3,0.4-0.5,0.7-0.5l1.8,0.3c0.3,0,0.5,0.3,0.5,0.6l0,17.7C68.7,54.1,68.5,54.3,68.1,54.3z"/>
	</g>
	<g>
		<rect x="63.2" y="50.7" class="st1" width="4.8" height="1.2"/>
	</g>
	<g>
		<path class="st1" d="M49.7,23.9c-0.3,0-0.6-0.1-0.8-0.4c-0.2-0.2-0.3-0.5-0.2-0.8c0.2-1.5,0.4-2.4,0.5-2.9h0.6h-0.6
			c0.2-0.6,0.3-0.6,0.6-0.6l0.6,0l0,0.6h-0.6l0.5,0.2c0,0.1-0.2,1.2-0.4,2.7l4.9,0l0,1.2L49.7,23.9C49.7,23.9,49.7,23.9,49.7,23.9z"
			/>
	</g>
	<g>
		
			<rect x="47.8" y="49.8" transform="matrix(0.3157 -0.9488 0.9488 0.3157 -12.6161 83.2804)" class="st1" width="7.3" height="1.2"/>
	</g>
	<g>
		<rect x="42.8" y="47" class="st1" width="1.2" height="6.7"/>
	</g>
	<g>
		<rect x="34.8" y="47" class="st1" width="1.2" height="6.7"/>
	</g>
	<g>
		
			<rect x="46.5" y="45.3" transform="matrix(0.5285 -0.8489 0.8489 0.5285 -16.6041 61.9432)" class="st1" width="1.9" height="1.2"/>
	</g>
	<g>
		<rect x="57.2" y="37.6" transform="matrix(0.1713 -0.9852 0.9852 0.1713 8.6789 89.8909)" class="st1" width="1.2" height="4.3"/>
	</g>
</g>
</svg>
