<?xml version="1.0" encoding="utf-8"?>
<!-- Generator: Adobe Illustrator 26.1.0, SVG Export Plug-In . SVG Version: 6.00 Build 0)  -->
<svg version="1.1" id="Слой_1" xmlns="http://www.w3.org/2000/svg" xmlns:xlink="http://www.w3.org/1999/xlink" x="0px" y="0px"
	 viewBox="0 0 78 78" style="enable-background:new 0 0 78 78;" xml:space="preserve">
<style type="text/css">
	.st0{fill:none;}
	.st1{fill:#151515;}
	.st2{fill:none;stroke:#151515;stroke-width:1.2;stroke-miterlimit:10;}
</style>
<rect class="st0" width="78" height="78"/>
<g>
	<g>
		<g>
			<path class="st1" d="M24.7,56.4c-3,0-5.4-2.4-5.4-5.4s2.4-5.4,5.4-5.4s5.4,2.4,5.4,5.4S27.7,56.4,24.7,56.4z M24.7,46.8
				c-2.3,0-4.2,1.9-4.2,4.2s1.9,4.2,4.2,4.2s4.2-1.9,4.2-4.2S27,46.8,24.7,46.8z"/>
		</g>
		<g>
			<path class="st1" d="M24.7,53.5c-1.4,0-2.5-1.1-2.5-2.5c0-1.4,1.1-2.5,2.5-2.5s2.5,1.1,2.5,2.5C27.2,52.4,26.1,53.5,24.7,53.5z
				 M24.7,49.7c-0.7,0-1.3,0.6-1.3,1.3s0.6,1.3,1.3,1.3S26,51.7,26,51S25.4,49.7,24.7,49.7z"/>
		</g>
	</g>
	<g>
		<g>
			<path class="st1" d="M35.4,56.4c-3,0-5.4-2.4-5.4-5.4s2.4-5.4,5.4-5.4s5.4,2.4,5.4,5.4S38.4,56.4,35.4,56.4z M35.4,46.8
				c-2.3,0-4.2,1.9-4.2,4.2s1.9,4.2,4.2,4.2s4.2-1.9,4.2-4.2S37.7,46.8,35.4,46.8z"/>
		</g>
		<g>
			<path class="st1" d="M35.4,53.5c-1.4,0-2.5-1.1-2.5-2.5c0-1.4,1.1-2.5,2.5-2.5s2.5,1.1,2.5,2.5C37.9,52.4,36.8,53.5,35.4,53.5z
				 M35.4,49.7c-0.7,0-1.3,0.6-1.3,1.3s0.6,1.3,1.3,1.3s1.3-0.6,1.3-1.3S36.1,49.7,35.4,49.7z"/>
		</g>
	</g>
	<g>
		<g>
			<path class="st1" d="M58,56.4c-3,0-5.4-2.4-5.4-5.4s2.4-5.4,5.4-5.4s5.4,2.4,5.4,5.4S61,56.4,58,56.4z M58,46.7
				c-2.3,0-4.2,1.9-4.2,4.2s1.9,4.2,4.2,4.2s4.2-1.9,4.2-4.2S60.4,46.7,58,46.7z"/>
		</g>
		<g>
			<path class="st1" d="M58,53.4c-1.4,0-2.5-1.1-2.5-2.5s1.1-2.5,2.5-2.5c1.4,0,2.5,1.1,2.5,2.5S59.4,53.4,58,53.4z M58,49.6
				c-0.7,0-1.3,0.6-1.3,1.3s0.6,1.3,1.3,1.3s1.3-0.6,1.3-1.3S58.7,49.6,58,49.6z"/>
		</g>
	</g>
	<g>
		<polygon class="st1" points="21.2,48.3 20,48 21.4,42.4 24.5,42.4 24.5,43.6 22.4,43.6 		"/>
	</g>
	<g>
		<polygon class="st1" points="40.3,49.8 38.1,43.6 26.4,43.6 26.4,42.4 38.9,42.4 41.5,49.4 		"/>
	</g>
	<g>
		<rect x="40.4" y="49.5" class="st1" width="12.9" height="1.2"/>
	</g>
	<g>
		<path class="st2" d="M40.3,50.1"/>
	</g>
	<g>
		<polygon class="st1" points="53.6,50.1 52.4,50.1 52.4,45.6 42.6,45.6 42.6,50.1 41.4,50.1 41.4,44.4 53.6,44.4 		"/>
	</g>
	<g>
		<path class="st1" d="M19.8,50.7h-4.3v-4.9h5.2v3.9C20.7,50.2,20.3,50.7,19.8,50.7z M16.7,49.5h2.8v-2.5h-2.8V49.5z"/>
	</g>
	<g>
		<path class="st1" d="M69.2,52.6h-4.6c-0.3,0-0.5-0.2-0.6-0.5c-0.2-0.8-1.3-4.8-2-6.7c-1.4,0-6,0-9.2,0h0c-0.2,0-0.3-0.1-0.5-0.2
			c-0.1-0.1-0.2-0.3-0.1-0.5c0-0.2,0-13.2,0-20c0-0.2,0.1-0.3,0.2-0.4c0.1-0.1,0.3-0.2,0.4-0.2h14c0.2,0,0.5,0.1,0.6,0.4l1.4,3.1
			c0.1,0.3,0,0.7-0.3,0.8c-0.3,0.1-0.7,0-0.8-0.3l-1.2-2.8h-13c0,13.2,0,17.5,0,18.9l4.2,0c2.5,0,3.8,0,4.5,0.1c0.1,0,0.1,0,0.2,0
			l0,0.1c0.6,0.1,0.6,0.2,0.6,0.4c0.5,1.5,1.6,5.1,2,6.6h3.5l0-15.1c0-0.3,0.3-0.6,0.6-0.6h0c0.3,0,0.6,0.3,0.6,0.6l0,15.7
			c0,0.2-0.1,0.3-0.2,0.4C69.5,52.6,69.3,52.6,69.2,52.6z"/>
	</g>
	<g>
		<rect x="63.3" y="48" class="st1" width="5.8" height="1.2"/>
	</g>
	<g>
		<path class="st1" d="M69.2,36.9c0,0-0.1,0-0.1,0l-13.5-3.3c-0.3-0.1-0.5-0.3-0.5-0.6v-5.2c0-0.2,0.1-0.3,0.2-0.4
			c0.1-0.1,0.3-0.2,0.4-0.2h0l12.5,0c0.3,0,0.6,0.2,0.6,0.5l0.9,8.5c0,0.2-0.1,0.4-0.2,0.5C69.4,36.9,69.3,36.9,69.2,36.9z
			 M56.3,32.5l12.2,3l-0.8-7.1l-11.4,0V32.5z"/>
	</g>
	<g>
		<rect x="58.9" y="27.8" class="st1" width="1.2" height="5.7"/>
	</g>
	<g>
		<g>
			<path class="st1" d="M43.5,43.8C43.5,43.8,43.5,43.8,43.5,43.8l-13.1-0.9c-0.1,0-0.2,0-0.4-0.1l-10.5-5.3l0.5-1.1l10.5,5.2
				l12.8,0.9L47,29l-11.5-5.6l-11.9-0.7L20,35.9l-1.2-0.3l3.6-13.3c0.1-0.5,0.6-0.8,1-0.8l12.2,0.7c0.1,0,0.2,0,0.4,0.1L47.7,28
				c0.4,0.2,0.6,0.7,0.5,1.2l-3.7,13.9C44.3,43.5,43.9,43.8,43.5,43.8z M43.5,42.6L43.5,42.6C43.5,42.6,43.5,42.6,43.5,42.6z
				 M30.5,41.7L30.5,41.7C30.5,41.7,30.5,41.7,30.5,41.7z M35.5,23.5C35.5,23.5,35.5,23.5,35.5,23.5L35.5,23.5z M35.4,23.5
				C35.4,23.5,35.4,23.5,35.4,23.5L35.4,23.5z"/>
		</g>
		<g>
			
				<rect x="41.2" y="26.3" transform="matrix(0.4139 -0.9103 0.9103 0.4139 -2.7174 55.5665)" class="st1" width="1.2" height="7.1"/>
		</g>
		<g>
			<polygon class="st1" points="35.8,27.8 34.3,27.2 31.7,26.9 31.8,25.7 34.7,26 36.3,26.7 			"/>
		</g>
		<g>
			
				<rect x="25.9" y="23.3" transform="matrix(8.085631e-02 -0.9967 0.9967 8.085631e-02 -1.4833 50.2225)" class="st1" width="1.2" height="5.2"/>
		</g>
	</g>
	<g>
		<path class="st1" d="M50,35.7c-1.9,0-3.4-1.5-3.4-3.4c0-1.9,1.5-3.4,3.4-3.4c1.9,0,3.4,1.5,3.4,3.4C53.5,34.2,51.9,35.7,50,35.7z
			 M50,30c-1.2,0-2.2,1-2.2,2.2c0,1.2,1,2.2,2.2,2.2c1.2,0,2.2-1,2.2-2.2C52.3,31,51.3,30,50,30z"/>
	</g>
	<g>
		<path class="st1" d="M17.2,46.4c-0.3,0-0.5-0.2-0.6-0.4l-3-11c-0.1-0.3,0.1-0.6,0.4-0.7c0.3-0.1,0.6,0.1,0.7,0.4l3,11
			c0.1,0.3-0.1,0.6-0.4,0.7C17.3,46.4,17.2,46.4,17.2,46.4z"/>
	</g>
	<g>
		<path class="st1" d="M21.7,44.5c-0.3,0-0.5-0.2-0.6-0.4l-2.5-9.2c-0.1-0.3,0.1-0.6,0.4-0.7c0.3-0.1,0.6,0.1,0.7,0.4l2.5,9.2
			c0.1,0.3-0.1,0.6-0.4,0.7C21.8,44.5,21.7,44.5,21.7,44.5z"/>
	</g>
	<g>
		<path class="st1" d="M19.2,35.4h-7.4c-0.2,0-0.5-0.2-0.6-0.4l-3-7.7c-0.1-0.2,0-0.4,0.1-0.6s0.3-0.3,0.5-0.3h10.4
			c0.3,0,0.6,0.3,0.6,0.6v7.7C19.8,35.1,19.6,35.4,19.2,35.4z M12.2,34.2h6.4v-6.5h-9L12.2,34.2z"/>
	</g>
</g>
</svg>
