<?xml version="1.0" encoding="utf-8"?>
<!-- Generator: Adobe Illustrator 26.1.0, SVG Export Plug-In . SVG Version: 6.00 Build 0)  -->
<svg version="1.1" id="Слой_1" xmlns="http://www.w3.org/2000/svg" xmlns:xlink="http://www.w3.org/1999/xlink" x="0px" y="0px"
	 viewBox="0 0 78 78" style="enable-background:new 0 0 78 78;" xml:space="preserve">
<style type="text/css">
	.st0{fill:none;}
	.st1{fill:#151515;}
</style>
<rect class="st0" width="78" height="78"/>
<g>
	<g>
		<g>
			<path class="st1" d="M24.4,52.9c-2.6,0-4.7-2.1-4.7-4.7s2.1-4.7,4.7-4.7s4.7,2.1,4.7,4.7S27,52.9,24.4,52.9z M24.4,44.8
				c-1.9,0-3.5,1.6-3.5,3.5s1.5,3.5,3.5,3.5s3.5-1.6,3.5-3.5S26.3,44.8,24.4,44.8z"/>
		</g>
		<g>
			<path class="st1" d="M24.4,50.4c-1.2,0-2.2-1-2.2-2.2s1-2.2,2.2-2.2s2.2,1,2.2,2.2S25.6,50.4,24.4,50.4z M24.4,47.2
				c-0.6,0-1,0.4-1,1s0.4,1,1,1s1-0.4,1-1S25,47.2,24.4,47.2z"/>
		</g>
	</g>
	<g>
		<g>
			<path class="st1" d="M52.2,52.9c-2.6,0-4.7-2.1-4.7-4.7s2.1-4.7,4.7-4.7c2.6,0,4.7,2.1,4.7,4.7S54.8,52.9,52.2,52.9z M52.2,44.8
				c-1.9,0-3.5,1.6-3.5,3.5s1.5,3.5,3.5,3.5s3.5-1.6,3.5-3.5S54.1,44.8,52.2,44.8z"/>
		</g>
		<g>
			<path class="st1" d="M52.2,50.4c-1.2,0-2.2-1-2.2-2.2s1-2.2,2.2-2.2s2.2,1,2.2,2.2S53.4,50.4,52.2,50.4z M52.2,47.2
				c-0.6,0-1,0.4-1,1s0.4,1,1,1c0.6,0,1-0.4,1-1S52.8,47.2,52.2,47.2z"/>
		</g>
	</g>
	<g>
		<path class="st1" d="M20.3,49.5h-4.7c-0.1,0-0.2,0-0.3,0l-4.5-0.7c-0.9-0.2-1.6-1-1.6-1.9V27.1c0-1.1,0.9-2,2-2h11.5v1.2H11.1
			c-0.4,0-0.8,0.3-0.8,0.8v19.7c0,0.4,0.3,0.7,0.6,0.7l4.5,0.7c0,0,0.1,0,0.1,0h4.7V49.5z"/>
	</g>
	<g>
		<rect x="28.5" y="48.3" class="st1" width="19.7" height="1.2"/>
	</g>
	<g>
		<path class="st1" d="M64.9,49.5h-8.5v-1.2h8.5c0.2,0,0.4-0.1,0.6-0.3s0.2-0.4,0.2-0.6l-1.8-14c-0.5-4.1-4-7.2-8.1-7.2H25.4v-1.2
			h30.4c4.7,0,8.7,3.5,9.3,8.2l1.8,14c0.1,0.6-0.1,1.1-0.5,1.5S65.4,49.5,64.9,49.5z"/>
	</g>
	<g>
		<path class="st1" d="M65.1,43.1l-3-2.8c-1.7-1.6-3.7-2.8-5.9-3.5l-5.8-2H10.1v-1.2h40.5l6,2c2.4,0.8,4.5,2.1,6.3,3.8l3,2.8
			L65.1,43.1z"/>
	</g>
	<g>
		<path class="st1" d="M39,49.5h-8.2V33.7H39V49.5z M32,48.3h5.8V34.9H32V48.3z"/>
	</g>
	<g>
		<rect x="57.8" y="37" class="st1" width="1.2" height="11.8"/>
	</g>
	<g>
		<rect x="18" y="26" class="st1" width="1.2" height="8"/>
	</g>
	<g>
		<rect x="28.8" y="26" class="st1" width="1.2" height="8"/>
	</g>
	<g>
		<rect x="39.6" y="26" class="st1" width="1.2" height="8"/>
	</g>
	<g>
		<rect x="50.4" y="26" class="st1" width="1.2" height="8"/>
	</g>
	<g>
		<path class="st1" d="M68.8,35.5h-1.2c0-1.2-1-2.2-2.2-2.2h-4v-1.2h4C67.3,32.1,68.8,33.6,68.8,35.5z"/>
	</g>
	<g>
		<rect x="24.8" y="37.8" class="st1" width="2.6" height="1.2"/>
	</g>
	<g>
		<rect x="41.1" y="37.8" class="st1" width="2.6" height="1.2"/>
	</g>
</g>
</svg>
