<?xml version="1.0" encoding="utf-8"?>
<!-- Generator: Adobe Illustrator 26.1.0, SVG Export Plug-In . SVG Version: 6.00 Build 0)  -->
<svg version="1.1" id="Слой_1" xmlns="http://www.w3.org/2000/svg" xmlns:xlink="http://www.w3.org/1999/xlink" x="0px" y="0px"
	 viewBox="0 0 78 78" style="enable-background:new 0 0 78 78;" xml:space="preserve">
<style type="text/css">
	.st0{fill:none;}
	.st1{fill:#151515;}
</style>
<rect class="st0" width="78" height="78"/>
<g>
	<g>
		<polygon class="st1" points="47,22.3 27.5,22.3 27.5,18.4 32.2,18.4 32.2,19.6 28.7,19.6 28.7,21.1 45.8,21.1 45.8,19.6 
			34.8,19.6 34.8,18.4 47,18.4 		"/>
	</g>
	<g>
		<path class="st1" d="M40.1,42.5h-6.7l-4.2-5V21.1h11V42.5z M33.9,41.3h5v-19h-8.6v14.8L33.9,41.3z"/>
	</g>
	<g>
		<path class="st1" d="M42,42.5h-3.2V21.1h6.4l1.8,13.4L42,42.5z M40.1,41.3h1.3l4.5-7.1l-1.6-11.9h-4.2V41.3z"/>
	</g>
	<g>
		<polygon class="st1" points="44,45.3 16.7,45.3 16.7,38.5 29.7,33.9 39.1,33.9 39.1,35.1 29.8,35.1 17.9,39.4 17.9,44.1 44,44.1 
					"/>
	</g>
	<g>
		<polygon class="st1" points="56.5,42.6 55.8,39.4 53.7,38.4 54.2,37.3 56.9,38.6 57.7,42.3 		"/>
	</g>
	<g>
		<rect x="48.5" y="32.7" transform="matrix(0.4273 -0.9041 0.9041 0.4273 -4.0636 64.811)" class="st1" width="1.2" height="5.9"/>
	</g>
	<g>
		
			<rect x="27.4" y="38.1" transform="matrix(0.7527 -0.6584 0.6584 0.7527 -19.6873 28.3996)" class="st1" width="1.2" height="4.6"/>
	</g>
	<g>
		<rect x="23.6" y="39.5" transform="matrix(0.7527 -0.6584 0.6584 0.7527 -21.0286 26.0474)" class="st1" width="1.2" height="3"/>
	</g>
	<g>
		<polygon class="st1" points="61.3,53.9 34.9,53.9 34.9,52.7 60.5,52.7 61.3,50.9 61.3,48.3 41.1,48.3 38.1,51.2 34.7,51.2 
			34.7,50 37.6,50 40.6,47.1 62.5,47.1 62.5,51.1 		"/>
	</g>
	<g>
		<polygon class="st1" points="20.5,51.3 15.7,51.2 15.7,44.1 18.2,44.1 18.2,45.3 16.9,45.3 16.9,50 20.5,50.1 		"/>
	</g>
	<g>
		<rect x="48.8" y="50" class="st1" width="6.8" height="1.2"/>
	</g>
	<g>
		<rect x="58.7" y="50" class="st1" width="1.3" height="1.2"/>
	</g>
	<g>
		
			<rect x="17.9" y="49.5" transform="matrix(0.5663 -0.8242 0.8242 0.5663 -35.1738 37.9434)" class="st1" width="1.2" height="5.8"/>
	</g>
	<g>
		<path class="st1" d="M27.6,59.6c-4.3,0-7.8-3.5-7.8-7.8s3.5-7.8,7.8-7.8s7.8,3.5,7.8,7.8S31.9,59.6,27.6,59.6z M27.6,45.3
			c-3.6,0-6.6,2.9-6.6,6.6s2.9,6.6,6.6,6.6s6.6-2.9,6.6-6.6S31.2,45.3,27.6,45.3z"/>
	</g>
	<g>
		<path class="st1" d="M27.6,57c-2.8,0-5.1-2.3-5.1-5.1s2.3-5.1,5.1-5.1c2.8,0,5.1,2.3,5.1,5.1c0,1.4-0.5,2.6-1.5,3.6l-0.8-0.8
			c0.7-0.7,1.1-1.7,1.1-2.7c0-2.1-1.7-3.9-3.9-3.9c-2.1,0-3.9,1.7-3.9,3.9s1.7,3.9,3.9,3.9c0.5,0,0.9-0.1,1.3-0.2l0.4,1.1
			C28.8,56.9,28.2,57,27.6,57z"/>
	</g>
	<g>
		<path class="st1" d="M43.2,47.8L42,47.6c1-4.4,5-7.6,9.5-7.6c4.4,0,8.3,3,9.5,7.3l-1.2,0.3c-1-3.8-4.4-6.4-8.3-6.4
			C47.5,41.2,44.1,43.9,43.2,47.8z"/>
	</g>
	<g>
		<path class="st1" d="M51.5,59.6c-4,0-7.5-2.4-9.1-6l1.1-0.5c1.3,3.2,4.5,5.3,7.9,5.3c3.5,0,6.6-2.1,7.9-5.3l1.1,0.5
			C59,57.3,55.5,59.6,51.5,59.6z"/>
	</g>
	<g>
		<path class="st1" d="M56.7,47.9c-0.8-2.1-2.9-3.6-5.2-3.6c-2.2,0-4.2,1.3-5.1,3.4l-1.1-0.5c1.1-2.5,3.5-4.1,6.2-4.1
			c2.8,0,5.3,1.7,6.3,4.3L56.7,47.9z"/>
	</g>
	<g>
		<path class="st1" d="M51.5,56.6c-2.2,0-4.3-1.1-5.6-3l1-0.7c1,1.5,2.7,2.4,4.6,2.4c0.6,0,1.3-0.1,1.9-0.3c0.8-0.3,1.5-0.7,2-1.3
			c0.2-0.2,0.5-0.5,0.7-0.8l1,0.7c-0.2,0.4-0.5,0.7-0.8,1c-0.7,0.7-1.5,1.2-2.5,1.6C53.1,56.4,52.3,56.6,51.5,56.6z"/>
	</g>
</g>
</svg>
