<svg width="30" height="30" viewBox="0 0 30 30" fill="none" xmlns="http://www.w3.org/2000/svg">
<path d="M26.5 3.75H8.5C7.2625 3.75 6.26125 4.73438 6.26125 5.9375L6.25 19.0625C6.25 20.2656 7.2625 21.25 8.5 21.25H26.5C27.7375 21.25 28.75 20.2656 28.75 19.0625V5.9375C28.75 4.73438 27.7375 3.75 26.5 3.75ZM26.05 8.39844L18.0962 13.2328C17.7362 13.4516 17.2638 13.4516 16.9038 13.2328L8.95 8.39844C8.83719 8.33687 8.73841 8.25369 8.65962 8.15393C8.58084 8.05418 8.52369 7.93991 8.49165 7.81806C8.4596 7.69621 8.45332 7.5693 8.47318 7.44502C8.49304 7.32074 8.53863 7.20167 8.60719 7.09502C8.67576 6.98836 8.76586 6.89634 8.87207 6.82453C8.97827 6.75271 9.09836 6.70259 9.22506 6.6772C9.35176 6.65181 9.48244 6.65168 9.6092 6.67682C9.73595 6.70195 9.85615 6.75183 9.9625 6.82344L17.5 11.4062L25.0375 6.82344C25.1439 6.75183 25.264 6.70195 25.3908 6.67682C25.5176 6.65168 25.6482 6.65181 25.7749 6.6772C25.9016 6.70259 26.0217 6.75271 26.1279 6.82453C26.2341 6.89634 26.3242 6.98836 26.3928 7.09502C26.4614 7.20167 26.507 7.32074 26.5268 7.44502C26.5467 7.5693 26.5404 7.69621 26.5084 7.81806C26.4763 7.93991 26.4192 8.05418 26.3404 8.15393C26.2616 8.25369 26.1628 8.33687 26.05 8.39844Z" fill="#D11E25"/>
</svg>
