<svg width="31" height="30" viewBox="0 0 31 30" fill="none" xmlns="http://www.w3.org/2000/svg">
<path fill-rule="evenodd" clip-rule="evenodd" d="M15.8717 26.1356L15.8743 26.1344L15.8807 26.13L15.9001 26.1156L15.9763 26.0625C16.0409 26.0163 16.1352 25.9488 16.254 25.86C16.4917 25.6838 16.8288 25.4244 17.2312 25.0913C18.2874 24.2176 19.275 23.2691 20.1858 22.2538C22.3223 19.8625 24.5413 16.45 24.5413 12.5475C24.5413 10.2163 23.5894 7.97875 21.8947 6.32875C21.0571 5.51212 20.0608 4.86387 18.9633 4.4213C17.8658 3.97873 16.6887 3.75059 15.4997 3.75C14.3107 3.7505 13.1336 3.97855 12.0361 4.42101C10.9386 4.86347 9.94231 5.51161 9.10463 6.32813C7.4083 7.9819 6.45687 10.2179 6.45801 12.5481C6.45801 16.45 8.67709 19.8625 10.8135 22.2538C11.7244 23.2691 12.712 24.2176 13.7682 25.0913C14.1712 25.4244 14.5077 25.6838 14.7453 25.86C14.8619 25.9469 14.9797 26.0324 15.0986 26.1163L15.1193 26.13L15.1251 26.1344L15.1277 26.1356C15.3505 26.2875 15.6489 26.2875 15.8717 26.1356ZM18.7288 12.5C18.7288 13.3288 18.3886 14.1237 17.783 14.7097C17.1775 15.2958 16.3561 15.625 15.4997 15.625C14.6432 15.625 13.8219 15.2958 13.2163 14.7097C12.6107 14.1237 12.2705 13.3288 12.2705 12.5C12.2705 11.6712 12.6107 10.8763 13.2163 10.2903C13.8219 9.70424 14.6432 9.375 15.4997 9.375C16.3561 9.375 17.1775 9.70424 17.783 10.2903C18.3886 10.8763 18.7288 11.6712 18.7288 12.5Z" fill="#D11E25"/>
</svg>
