<svg width="34" height="33" viewBox="0 0 34 33" fill="none" xmlns="http://www.w3.org/2000/svg">
<g clip-path="url(#clip0_356_198)">
<g clip-path="url(#clip1_356_198)">
<path d="M8.62305 8.41144C8.62305 7.6973 8.91388 7.0124 9.43156 6.50742C9.94924 6.00244 10.6514 5.71875 11.3835 5.71875L19.6648 5.71875C20.3969 5.71875 21.099 6.00244 21.6167 6.50742C22.1344 7.0124 22.4252 7.6973 22.4252 8.41144L22.4252 24.5676C22.4252 25.2818 22.1344 25.9666 21.6167 26.4716C21.099 26.9766 20.3969 27.2603 19.6648 27.2603L11.3835 27.2603C10.6514 27.2603 9.94924 26.9766 9.43156 26.4716C8.91388 25.9667 8.62305 25.2818 8.62305 24.5676L8.62305 8.41144ZM16.9044 23.2213C16.9044 22.8642 16.7589 22.5217 16.5001 22.2692C16.2413 22.0168 15.8902 21.8749 15.5241 21.8749C15.1581 21.8749 14.807 22.0168 14.5482 22.2692C14.2893 22.5217 14.1439 22.8642 14.1439 23.2213C14.1439 23.5783 14.2893 23.9208 14.5482 24.1733C14.807 24.4258 15.1581 24.5676 15.5241 24.5676C15.8902 24.5676 16.2413 24.4258 16.5001 24.1733C16.7589 23.9208 16.9044 23.5783 16.9044 23.2213Z" fill="#D11E25"/>
</g>
</g>
<defs>
<clipPath id="clip0_356_198">
<rect width="27.5595" height="26.9728" fill="white" transform="matrix(0.967498 0.252878 -0.264879 0.964282 7.14453 0)"/>
</clipPath>
<clipPath id="clip1_356_198">
<rect width="22.032" height="21.5942" fill="white" transform="translate(4.48242 5.71875) scale(1.00234 0.997562)"/>
</clipPath>
</defs>
</svg>
